Coordinates
version=1
nRows=8
nColumns=40
inDegrees=yes

Units are S.I. units (second, meters, Newtons, ...)
Angles are in degrees.

endheader
time	pelvis_tilt	pelvis_list	pelvis_rotation	pelvis_tx	pelvis_ty	pelvis_tz	hip_flexion_r	hip_adduction_r	hip_rotation_r	knee_angle_r	knee_angle_r_beta	ankle_angle_r	subtalar_angle_r	mtp_angle_r	hip_flexion_l	hip_adduction_l	hip_rotation_l	knee_angle_l	knee_angle_l_beta	ankle_angle_l	subtalar_angle_l	mtp_angle_l	lumbar_extension	lumbar_bending	lumbar_rotation	arm_flex_r	arm_add_r	arm_rot_r	elbow_flex_r	pro_sup_r	wrist_flex_r	wrist_dev_r	arm_flex_l	arm_add_l	arm_rot_l	elbow_flex_l	pro_sup_l	wrist_flex_l	wrist_dev_l
     58.62800000	     -4.34067059	     -6.07787724	      3.89916796	      0.87908608	      0.92387694	      0.46284399	     13.71349247	      4.35468561	    -13.68572943	     21.04805605	     21.04805605	     13.05374040	     -6.98279790	     -0.38986094	     33.80372519	    -11.08485204	      3.03812491	     63.15962546	     63.15962546	      7.78756894	    -19.10739487	     15.60344193	    -10.39472656	      4.41702427	      1.11313649	     21.05442688	    -15.44020161	     -1.22345981	     68.00844457	     44.92121460	      0.00000000	      0.00000000	      6.39522276	     -7.83285237	    -13.82763655	     32.16088418	     46.85832531	      0.00000000	      0.00000000
     58.64100000	     -4.54404156	     -5.95217937	      4.26206890	      0.87765792	      0.92409616	      0.46283415	     13.31757361	      4.27738863	    -13.81876403	     20.58168465	     20.58168465	     13.24574181	     -7.04476069	     -0.33241408	     34.66953134	    -10.62435099	      2.99340184	     60.20406462	     60.20406462	      8.71090447	    -19.09167725	     16.03491327	    -10.37203923	      4.16046628	      1.29201705	     22.33590479	    -15.89022076	     -0.88196809	     71.39335581	     44.81876891	      0.00000000	      0.00000000	      6.06691652	     -7.60758882	    -13.73351948	     30.53067296	     46.82156171	      0.00000000	      0.00000000
     58.65400000	     -4.67573735	     -5.74286026	      4.61285559	      0.87627536	      0.92454421	      0.46264671	     12.84135986	      4.11204784	    -13.89145840	     20.13210793	     20.13210793	     13.41394780	     -7.10404767	     -0.27260173	     35.16544182	    -10.00872830	      2.94478990	     56.73769962	     56.73769962	      9.34730006	    -19.03949063	     16.12488900	    -10.41731612	      3.76944501	      1.27286734	     24.10918010	    -15.77508625	     -0.98914989	     73.27093032	     44.77343082	      0.00000000	      0.00000000	      5.28129067	     -7.48275883	    -13.68992691	     29.78573615	     46.79632710	      0.00000000	      0.00000000
     58.66700000	     -4.92918612	     -5.62731361	      4.99801667	      0.87477959	      0.92466426	      0.46219393	     12.49529504	      3.99371801	    -14.16505611	     19.66246531	     19.66246531	     13.56138375	     -6.99460639	     -0.24880890	     35.66922355	     -9.34642370	      3.11390865	     53.02411509	     53.02411509	      9.75000348	    -18.90961877	     15.62666669	    -10.43452406	      3.55923167	      1.24247559	     25.48694193	    -15.95448400	     -0.78320823	     76.71662113	     44.67680443	      0.00000000	      0.00000000	      4.61726669	     -7.27903665	    -13.65871725	     28.75761380	     46.76769084	      0.00000000	      0.00000000
     58.68000000	     -5.17449340	     -5.43200696	      5.32366951	      0.87333297	      0.92478634	      0.46159176	     12.13434870	      3.79301400	    -14.28521503	     19.21459460	     19.21459460	     13.75700375	     -6.90987102	     -0.24488609	     35.93587424	     -8.53315257	      3.42148015	     49.08384653	     49.08384653	     10.06257119	    -18.65147666	     15.17135958	    -10.42321432	      3.21703402	      1.29091725	     27.08947981	    -15.97203360	     -0.80907050	     79.09578919	     44.61899521	      0.00000000	      0.00000000	      3.85753802	     -7.09354470	    -13.65577884	     28.14219590	     46.74581625	      0.00000000	      0.00000000
     58.69300000	     -5.45738199	     -5.21286617	      5.63314007	      0.87195056	      0.92484720	      0.46080549	     11.82427220	      3.54911902	    -14.42914193	     18.80292619	     18.80292619	     13.93083337	     -6.88402261	     -0.23719713	     36.04448577	     -7.65884823	      3.82294834	     44.99215029	     44.99215029	     10.36478808	    -18.16772959	     14.98819542	    -10.31021075	      2.88008144	      1.38701840	     28.65934139	    -15.95046213	     -0.82220398	     80.94335512	     44.57211150	      0.00000000	      0.00000000	      3.09291062	     -6.94993810	    -13.68171555	     27.70632737	     46.73353679	      0.00000000	      0.00000000
     58.70600000	     -5.69151510	     -5.14759904	      5.96239101	      0.87063125	      0.92471414	      0.45986602	     11.45709981	      3.43437540	    -14.78491098	     18.38690174	     18.38690174	     14.15272791	     -6.56222252	     -0.36293142	     35.92101655	     -6.98872668	      4.32375860	     40.70286276	     40.70286276	      9.38191114	    -17.60368963	     11.37544121	    -10.37876815	      2.75344782	      1.88765047	     29.44222542	    -16.54612315	     -0.82285866	     85.09748580	     44.51074422	      0.00000000	      0.00000000	      2.61908204	     -6.59887090	    -13.98085228	     27.20862028	     46.73710191	      0.00000000	      0.00000000
     58.71900000	     -5.95024266	     -5.01896481	      6.22472914	      0.86942930	      0.92454576	      0.45885714	     11.11659588	      3.27581540	    -14.93660791	     17.98515611	     17.98515611	     14.35599806	     -6.43105762	     -0.40595346	     35.82190434	     -6.28235524	      4.87617591	     36.84384859	     36.84384859	      9.79455597	    -16.36023638	     11.41235548	    -10.30652755	      2.51060041	      1.89435871	     31.06825330	    -16.33057252	     -0.76475495	     86.71467144	     44.47278606	      0.00000000	      0.00000000	      1.78903069	     -6.46701705	    -14.04017918	     26.86009271	     46.72761904	      0.00000000	      0.00000000
